<svg width="36" height="36" viewBox="0 0 36 36" fill="none" xmlns="http://www.w3.org/2000/svg">
<path d="M16.3125 18C16.3125 17.6662 16.4115 17.34 16.5969 17.0625C16.7824 16.785 17.0459 16.5687 17.3543 16.441C17.6626 16.3132 18.0019 16.2798 18.3293 16.3449C18.6566 16.41 18.9573 16.5708 19.1933 16.8068C19.4293 17.0428 19.59 17.3434 19.6551 17.6708C19.7202 17.9981 19.6868 18.3374 19.5591 18.6458C19.4314 18.9541 19.2151 19.2177 18.9376 19.4031C18.6601 19.5885 18.3338 19.6875 18 19.6875C17.5525 19.6875 17.1233 19.5097 16.8068 19.1932C16.4903 18.8768 16.3125 18.4476 16.3125 18ZM11.8125 19.6875C12.1463 19.6875 12.4726 19.5885 12.7501 19.4031C13.0276 19.2177 13.2439 18.9541 13.3716 18.6458C13.4993 18.3374 13.5327 17.9981 13.4676 17.6708C13.4025 17.3434 13.2418 17.0428 13.0058 16.8068C12.7698 16.5708 12.4691 16.41 12.1418 16.3449C11.8144 16.2798 11.4751 16.3132 11.1668 16.441C10.8584 16.5687 10.5949 16.785 10.4094 17.0625C10.224 17.34 10.125 17.6662 10.125 18C10.125 18.4476 10.3028 18.8768 10.6193 19.1932C10.9358 19.5097 11.365 19.6875 11.8125 19.6875ZM24.1875 19.6875C24.5213 19.6875 24.8476 19.5885 25.1251 19.4031C25.4026 19.2177 25.6189 18.9541 25.7466 18.6458C25.8743 18.3374 25.9077 17.9981 25.8426 17.6708C25.7775 17.3434 25.6168 17.0428 25.3808 16.8068C25.1448 16.5708 24.8441 16.41 24.5168 16.3449C24.1894 16.2798 23.8501 16.3132 23.5418 16.441C23.2334 16.5687 22.9699 16.785 22.7844 17.0625C22.599 17.34 22.5 17.6662 22.5 18C22.5 18.4476 22.6778 18.8768 22.9943 19.1932C23.3108 19.5097 23.74 19.6875 24.1875 19.6875ZM32.625 9V27C32.625 27.5967 32.388 28.169 31.966 28.591C31.5441 29.0129 30.9718 29.25 30.375 29.25H11.6719L7.08754 33.21L7.07488 33.2198C6.66987 33.5631 6.15593 33.751 5.62504 33.75C5.29451 33.7494 4.96811 33.6764 4.66879 33.5362C4.28048 33.3568 3.95201 33.0694 3.72261 32.7083C3.4932 32.3472 3.37254 31.9278 3.37504 31.5V9C3.37504 8.40326 3.61209 7.83097 4.03405 7.40901C4.456 6.98705 5.0283 6.75 5.62504 6.75H30.375C30.9718 6.75 31.5441 6.98705 31.966 7.40901C32.388 7.83097 32.625 8.40326 32.625 9ZM30.375 9H5.62504V31.5L10.5146 27.2812C10.7178 27.102 10.979 27.0021 11.25 27H30.375V9Z" fill="white"/>
</svg>
